<?xml version="1.0" encoding="UTF-8" standalone="no"?>
<svg
   viewBox="0 0 27 27"
   width="27"
   height="27"
   version="1.1"
   id="svg2"
   sodipodi:docname="clockifyIcon.svg"
   inkscape:version="1.4.2 (f4327f4, 2025-05-13)"
   xmlns:inkscape="http://www.inkscape.org/namespaces/inkscape"
   xmlns:sodipodi="http://sodipodi.sourceforge.net/DTD/sodipodi-0.dtd"
   xmlns="http://www.w3.org/2000/svg"
   xmlns:svg="http://www.w3.org/2000/svg">
  <defs
     id="defs2" />
  <sodipodi:namedview
     id="namedview2"
     pagecolor="#ffffff"
     bordercolor="#000000"
     borderopacity="0.25"
     inkscape:showpageshadow="2"
     inkscape:pageopacity="0.0"
     inkscape:pagecheckerboard="true"
     inkscape:deskcolor="#d1d1d1"
     inkscape:zoom="8.8409091"
     inkscape:cx="3.3367609"
     inkscape:cy="25.619537"
     inkscape:window-width="1920"
     inkscape:window-height="1009"
     inkscape:window-x="-8"
     inkscape:window-y="-8"
     inkscape:window-maximized="1"
     inkscape:current-layer="svg2" />
  <g
     id="g20"
     transform="translate(2.65,-0.1)">
    <path
       d="M 21.7,21.4 20.1,23 14.5,17.4 16.1,15.7999 Z"
       id="path20"
       style="fill:#ffffff;fill-opacity:1" />
    <path
       d="m 12.1,15.6 c -1.1,0 -2,-0.9 -2,-2 0,-1.1 0.9,-2 2,-2 1.1,0 2,0.9 2,2 0,1.1 -0.9,2 -2,2 z"
       id="path19"
       style="fill:#ffffff;fill-opacity:1" />
    <path
       d="m 14.4,9.79995 5.6,-5.6 1.6,1.6 L 16,11.4 Z"
       id="path1"
       style="fill:#ffffff;fill-opacity:1" />
    <path
       d="m 12.2,22.2 c 1.1,0 2.2,-0.2 3.2,-0.6 l 2.8,2.8 c -1.8,1 -3.8,1.5 -5.9,1.5 C 5.5,25.9 0,20.4 0,13.6 0,6.8 5.5,1.3 12.3,1.3 c 2.2,0 4.2,0.6 5.9,1.5 l -2.7,2.7 c -1,-0.4 -2.1,-0.6 -3.2,-0.6 -4.8,0 -8.6,3.9 -8.6,8.6 -0.1,4.8 3.7,8.7 8.5,8.7 z"
       id="path17"
       style="fill:#ffffff;fill-opacity:1" />
  </g>
</svg>
