<?xml version="1.0" encoding="UTF-8" standalone="no"?>
<svg
   version="1.1"
   viewBox="0 0 296.228 296.228"
   enable-background="new 0 0 296.228 296.228"
   id="svg8"
   sodipodi:docname="timer-svgrepo-com.svg"
   inkscape:version="1.1 (c68e22c387, 2021-05-23)"
   xmlns:inkscape="http://www.inkscape.org/namespaces/inkscape"
   xmlns:sodipodi="http://sodipodi.sourceforge.net/DTD/sodipodi-0.dtd"
   xmlns="http://www.w3.org/2000/svg"
   xmlns:svg="http://www.w3.org/2000/svg">
  <defs
     id="defs12" />
  <sodipodi:namedview
     id="namedview10"
     pagecolor="#ffffff"
     bordercolor="#666666"
     borderopacity="1.0"
     inkscape:pageshadow="2"
     inkscape:pageopacity="0.0"
     inkscape:pagecheckerboard="0"
     showgrid="false"
     inkscape:zoom="2"
     inkscape:cx="-28.75"
     inkscape:cy="108.75"
     inkscape:window-width="3440"
     inkscape:window-height="1377"
     inkscape:window-x="2552"
     inkscape:window-y="-8"
     inkscape:window-maximized="1"
     inkscape:current-layer="g6" />
  <g
     id="g6">
    <path
       d="m167.364,48.003v-23.003h10.5c6.903,0 12.5-5.597 12.5-12.5s-5.596-12.5-12.5-12.5h-59.5c-6.903,0-12.5,5.597-12.5,12.5s5.597,12.5 12.5,12.5h10.5v23.003c-59.738,9.285-105.604,61.071-105.604,123.37-3.55271e-15,68.845 56.01,124.854 124.854,124.854s124.854-56.01 124.854-124.854c0-62.299-45.866-114.085-105.604-123.37zm-19.25,223.225c-55.06,0-99.854-44.795-99.854-99.854s44.795-99.854 99.854-99.854 99.854,44.795 99.854,99.854-44.794,99.854-99.854,99.854z"
       id="path2"
       style="fill:#c8c8c8;fill-opacity:1"
       inkscape:export-filename="D:\Programming\CSharp\streamdeck-clockify\Clockify\Images\category2.png"
       inkscape:export-xdpi="9.0741224"
       inkscape:export-ydpi="9.0741224" />
    <path
       d="m160.614,166.18v-58.889c0-6.903-5.597-12.5-12.5-12.5s-12.5,5.597-12.5,12.5v66.1c0,2.033 0.81,3.982 2.25,5.416l34.969,34.822c4.893,4.872 12.806,4.854 17.678-0.037 4.871-4.892 4.854-12.807-0.037-17.678l-29.86-29.734z"
       id="path4"
       style="fill:#c8c8c8;fill-opacity:1"
       inkscape:export-filename="D:\Programming\CSharp\streamdeck-clockify\Clockify\Images\category2.png"
       inkscape:export-xdpi="9.0741224"
       inkscape:export-ydpi="9.0741224" />
  </g>
</svg>
